<svg width="30" height="30" viewBox="0 0 30 30" fill="none" xmlns="http://www.w3.org/2000/svg">
<mask id="mask0_15_25638" style="mask-type:alpha" maskUnits="userSpaceOnUse" x="0" y="0" width="30" height="30">
<rect x="0.333252" y="0.333374" width="29.3333" height="29.3333" fill="white"/>
</mask>
<g mask="url(#mask0_15_25638)">
<path fill-rule="evenodd" clip-rule="evenodd" d="M25.096 14.2186C25.364 15.2354 25.0993 16.3635 24.3022 17.1607L17.1605 24.3023C15.9672 25.4956 14.0326 25.4956 12.8393 24.3023L5.6976 17.1607C4.90046 16.3635 4.63583 15.2355 4.90374 14.2187C3.82437 13.1238 3.1967 11.7508 3.02073 10.3324C0.479995 12.9637 0.508043 17.1565 3.10488 19.7534L10.2466 26.8951C12.8717 29.5202 17.128 29.5202 19.7532 26.8951L26.8949 19.7534C29.4918 17.1565 29.5198 12.9636 26.979 10.3323C26.803 11.7507 26.1754 13.1237 25.096 14.2186Z" fill="#57A75C"/>
<path fill-rule="evenodd" clip-rule="evenodd" d="M6.98122 13.2409C4.40896 10.6686 4.40896 6.49814 6.98122 3.92588C11.4098 -0.50268 18.5899 -0.502681 23.0185 3.92588C25.5907 6.49814 25.5907 10.6686 23.0185 13.2409L17.1604 19.0989C15.9672 20.2922 14.0325 20.2922 12.8392 19.0989L6.98122 13.2409ZM9.57395 6.51861C8.43361 7.65895 8.43361 9.5078 9.57395 10.6481L14.9998 16.074L20.4257 10.6481C21.5661 9.5078 21.5661 7.65895 20.4257 6.51861C17.4291 3.52197 12.5706 3.52197 9.57395 6.51861Z" fill="#57A75C"/>
</g>
</svg>
