<svg width="258" height="258" viewBox="0 0 258 258" fill="none" xmlns="http://www.w3.org/2000/svg">
<g clip-path="url(#clip0_54_2199)">
<circle cx="129" cy="129" r="129" fill="#F4F6F8"/>
<g clip-path="url(#clip1_54_2199)">
<path d="M169.301 111.757C168.747 111.741 168.2 111.879 167.721 112.157C166.811 112.609 165.966 113.182 165.209 113.86C166.144 111.125 166.931 108.335 167.753 105.565C168.637 102.626 169.359 99.6405 169.914 96.622C170.607 92.752 171.343 88.7756 170.881 84.8604C169.437 72.3668 163.174 72.0443 164.364 71.4477C165.554 70.851 168.04 71.6831 168.04 71.6831C162.793 59.986 152.312 60.3504 152.312 60.3504C153.321 59.0443 156.288 59.1636 156.288 59.1636C152.373 55.8387 147.416 57.1738 147.416 57.1738C148.771 54.6712 154.789 54.8067 154.789 54.8067C149.58 52.1686 141.872 54.8067 141.872 54.8067C141.872 52.9136 145.32 51.6945 145.32 51.6945C141.914 51.2269 134.977 52.5492 134.8 52.5846C136.013 50.1885 138.828 49.7337 138.828 49.7337C130.304 47.9761 121.061 54.9679 121.061 54.9679C121.316 53.9391 123.558 52.0267 123.558 52.0267C118.507 52.9242 113.905 55.4948 110.493 59.3249C102.137 60.8181 96.2449 65.8329 96.2449 65.8329C99.4119 64.1624 101.963 65.1299 101.963 65.1299C97.1254 65.304 91.23 74.0148 91.23 74.0148C92.0239 73.3708 92.9383 72.8917 93.9197 72.6054C89.2854 76.5593 88.8113 87.3856 88.8113 87.3856C89.4724 84.6573 91.3429 84.4251 91.3429 84.4251C86.7376 88.9401 90.8592 107.245 92.6071 111.251C92.8264 111.75 93.0715 112.305 93.3327 112.892C92.9295 112.619 92.5082 112.373 92.0718 112.157C91.591 111.88 91.0429 111.742 90.4883 111.757C89.1983 111.873 88.5823 113.369 88.6113 116.211C88.6122 118.17 89.0013 120.11 89.7562 121.919C90.8753 124.499 91.23 127.879 91.3268 130.256C91.3891 132.426 92.2584 134.496 93.7649 136.061C95.3774 137.705 97.1383 138.021 98.8701 136.983C99.1055 138.637 99.3151 140.45 99.5151 142.059C99.6441 143.181 99.7666 144.242 99.8763 145.052C100.196 147.423 100.854 149.736 101.831 151.921C101.795 154.922 101.568 157.918 101.15 160.89C102.35 163.196 108.713 173.893 127.766 183.587C124.324 185.228 121.021 187.145 117.888 189.318C121.257 193.563 124.105 198.196 126.373 203.118C126.52 203.432 126.752 203.698 127.044 203.885C125.16 207.652 119.133 224.203 116.775 262.339H143.072C140.711 224.135 134.668 207.607 132.794 203.866C133.073 203.68 133.296 203.421 133.439 203.118C135.711 198.187 138.566 193.546 141.943 189.296C138.817 187.129 135.521 185.218 132.088 183.581C150.873 174.022 157.323 163.489 158.649 160.987C158.221 157.995 157.99 154.978 157.956 151.957C158.936 149.758 159.595 147.431 159.913 145.045C160.023 144.239 160.145 143.181 160.274 142.062C160.461 140.45 160.671 138.631 160.919 136.976C161.52 137.357 162.214 137.566 162.925 137.579C163.986 137.579 165.028 137.067 166.025 136.054C167.533 134.491 168.402 132.42 168.463 130.249C168.559 127.872 168.914 124.496 170.033 121.912C170.787 120.104 171.178 118.164 171.181 116.204C171.201 113.369 170.578 111.873 169.301 111.757Z" fill="#0F172A"/>
<path d="M96.589 173.087C96.4793 169.913 96.9115 167.004 98.1628 164.702L98.6691 163.524C98.6691 163.524 95.8924 166.617 92.1256 170.923C85.7465 176.305 75.662 179.814 64.1907 183.5C55.6928 186.241 37.2845 194.642 29.6445 198.184C28.5902 198.672 27.6744 199.415 26.9801 200.347C26.2857 201.278 25.8347 202.368 25.668 203.518L17.0928 262.338H101.51C99.1787 238.454 95.1539 192.52 96.589 173.087Z" fill="#0F172A"/>
<path d="M234.195 203.537C234.029 202.387 233.578 201.297 232.883 200.366C232.189 199.434 231.273 198.691 230.219 198.203C222.579 194.655 204.171 186.27 195.673 183.519C184.202 179.817 174.117 176.308 167.735 170.942C163.971 166.633 161.194 163.544 161.194 163.544L161.701 164.721C163.036 167.172 163.439 170.313 163.249 173.728C164.555 193.507 160.591 238.715 158.282 262.354H242.771L234.195 203.537Z" fill="#0F172A"/>
</g>
</g>
<defs>
<clipPath id="clip0_54_2199">
<rect width="258" height="258" rx="129" fill="white"/>
</clipPath>
<clipPath id="clip1_54_2199">
<rect width="258" height="232.2" fill="white" transform="translate(0 25.8)"/>
</clipPath>
</defs>
</svg>
