<svg width="20" height="20" viewBox="0 0 20 20" fill="none" xmlns="http://www.w3.org/2000/svg">
<path d="M4.944 15.9802C4.91543 15.9549 4.88555 15.9302 4.85841 15.9083V15.898L4.69779 15.7495C3.14441 14.3138 2.16675 12.2696 2.16675 10C2.16675 5.6845 5.68456 2.16669 10.0001 2.16669C14.3156 2.16669 17.8334 5.6845 17.8334 10C17.8334 12.2694 16.8559 14.3132 15.295 15.7486L15.031 15.9914C14.9786 16.0327 14.9298 16.0762 14.9167 16.0879C14.9148 16.0896 14.9136 16.0907 14.9133 16.0909C14.7783 16.2034 14.6325 16.3112 14.4717 16.4237L14.4717 16.4237L14.4678 16.4265C14.4209 16.46 14.3973 16.478 14.3822 16.4895C14.3656 16.5022 14.3592 16.507 14.3437 16.5159L14.3313 16.523L14.3193 16.5308C14.2176 16.5969 14.1243 16.6512 14.0203 16.7118C13.9639 16.7447 13.9043 16.7794 13.8385 16.8188C13.808 16.8365 13.7758 16.8567 13.7539 16.8704C13.7484 16.8738 13.7435 16.8769 13.7395 16.8794C13.7125 16.8961 13.697 16.905 13.6848 16.9111L13.6848 16.9111L13.6764 16.9154C13.5124 17.0013 13.3491 17.0791 13.1865 17.1488L13.1729 17.1546L13.1598 17.1611C13.0884 17.1968 13.0456 17.2177 13.0078 17.2319L12.9971 17.2359L12.9865 17.2404C12.8857 17.2836 12.7912 17.316 12.68 17.354C12.6207 17.3743 12.5568 17.3961 12.4846 17.4222C12.4001 17.4451 12.3215 17.4746 12.266 17.4955L12.2637 17.4963C12.1501 17.5355 12.037 17.5622 11.9 17.5946C11.849 17.6067 11.7947 17.6195 11.7357 17.6341C11.6799 17.6434 11.6333 17.6562 11.608 17.6632L11.6057 17.6639L11.6 17.6654C11.5856 17.6694 11.5796 17.671 11.5737 17.6725L11.5622 17.6742L11.5453 17.6778C11.3343 17.723 11.1196 17.754 10.8903 17.7777L10.855 17.7813L10.8205 17.7899L10.8101 17.7925L10.7965 17.7937C10.5319 17.8178 10.2643 17.8334 10.0001 17.8334C9.74809 17.8334 9.4927 17.8192 9.23176 17.7969C9.19664 17.7889 9.14377 17.779 9.0848 17.7759C8.86179 17.7524 8.6524 17.7219 8.44651 17.6778L8.4253 17.6732L8.40377 17.6705C8.38071 17.6677 8.35751 17.6619 8.29577 17.6443L8.28776 17.642L8.27968 17.6399C8.07819 17.5896 7.88757 17.5419 7.69841 17.4867L7.6891 17.484L7.67969 17.4816C7.64549 17.4731 7.60583 17.4588 7.53397 17.4319L7.5221 17.4274L7.51002 17.4236C7.3398 17.3694 7.16905 17.3073 6.99773 17.2372L6.9909 17.2345L6.98399 17.2319C6.94626 17.2177 6.90343 17.1968 6.83202 17.1611L6.81517 17.1527L6.79773 17.1456C6.63271 17.0781 6.47623 17.0036 6.32806 16.9223C6.30524 16.9092 6.27973 16.8939 6.24899 16.8754L6.24698 16.8742C6.21719 16.8564 6.18203 16.8353 6.14815 16.8159L6.1402 16.8114L6.13209 16.8071C5.9754 16.725 5.82689 16.636 5.68636 16.5401C5.65592 16.5184 5.62782 16.4989 5.60254 16.4814L5.60135 16.4806C5.57499 16.4623 5.5516 16.4461 5.52693 16.4286C5.4862 16.3986 5.447 16.37 5.4091 16.3424C5.28818 16.2543 5.18048 16.1759 5.07851 16.0909L5.05799 16.0738L5.03583 16.059C5.03583 16.059 5.03583 16.059 5.03582 16.059C5.03554 16.0588 5.03029 16.0551 5.01439 16.0414L4.98279 16.0137C4.97189 16.0041 4.95865 15.9926 4.944 15.9802ZM13.838 14.5568L13.838 14.5568L13.8416 14.5592C14.1662 14.7731 14.4337 15.0204 14.6399 15.2835L14.9903 15.7305L15.3893 15.3263C16.7438 13.9539 17.5834 12.0712 17.5834 10C17.5834 5.81555 14.1846 2.41669 10.0001 2.41669C5.81561 2.41669 2.41675 5.81554 2.41675 10C2.41675 12.0712 3.25641 13.9539 4.61089 15.3263L5.00331 15.7238L5.35513 15.2899C5.57566 15.0179 5.83823 14.7703 6.15857 14.5592L6.16076 14.5577C7.19947 13.8652 8.59125 13.5042 10.0063 13.5042C11.4216 13.5042 12.8084 13.8653 13.838 14.5568Z" fill="#222222" stroke="#222222"/>
<path d="M7.375 8.90002C7.375 7.45117 8.55114 6.27502 10 6.27502C11.4485 6.27502 12.6243 7.45051 12.625 8.89882C12.6174 10.3198 11.5089 11.4635 10.0993 11.5167H10.0993H10.0992H10.0992H10.0991H10.0991H10.099H10.099H10.099H10.0989H10.0989H10.0988H10.0988H10.0987H10.0987H10.0986H10.0986H10.0986H10.0985H10.0985H10.0984H10.0984H10.0983H10.0983H10.0982H10.0982H10.0982H10.0981H10.0981H10.098H10.098H10.0979H10.0979H10.0978H10.0978H10.0977H10.0977H10.0976H10.0976H10.0976H10.0975H10.0975H10.0974H10.0974H10.0973H10.0973H10.0972H10.0972H10.0971H10.0971H10.097H10.097H10.097H10.0969H10.0969H10.0968H10.0968H10.0967H10.0967H10.0966H10.0966H10.0965H10.0965H10.0964H10.0964H10.0963H10.0963H10.0963H10.0962H10.0962H10.0961H10.0961H10.096H10.096H10.0959H10.0959H10.0958H10.0958H10.0957H10.0957H10.0956H10.0956H10.0955H10.0955H10.0954H10.0954H10.0954H10.0953H10.0953H10.0952H10.0952H10.0951H10.0951H10.095H10.095H10.0949H10.0949H10.0948H10.0948H10.0947H10.0947H10.0946H10.0946H10.0945H10.0945H10.0944H10.0944H10.0943H10.0943H10.0942H10.0942H10.0941H10.0941H10.0941H10.094H10.094H10.0939H10.0939H10.0938H10.0938H10.0937H10.0937H10.0936H10.0936H10.0935H10.0935H10.0934H10.0934H10.0933H10.0933H10.0932H10.0932H10.0931H10.0931H10.093H10.093H10.0929H10.0929H10.0928H10.0928H10.0927H10.0927H10.0926H10.0926H10.0925H10.0925H10.0924H10.0924H10.0923H10.0923H10.0923H10.0922H10.0922H10.0921H10.0921H10.092H10.092H10.0919H10.0919H10.0918H10.0918H10.0917H10.0917H10.0916H10.0915H10.0914H10.0913H10.0912H10.0911H10.091H10.0909H10.0908H10.0907H10.0906H10.0905H10.0904H10.0903H10.0902H10.0901H10.09H10.0899H10.0898H10.0897H10.0896H10.0895H10.0894H10.0893H10.0892H10.0891H10.089H10.0889H10.0888H10.0887H10.0886H10.0884H10.0883H10.0882H10.0881H10.088H10.0879H10.0878H10.0877H10.0876H10.0875H10.0874H10.0873H10.0872H10.0871H10.087H10.0869H10.0868H10.0867H10.0866H10.0865H10.0863H10.0862H10.0861H10.086H10.0859H10.0858H10.0857H10.0856H10.0855H10.0854H10.0853H10.0852H10.0851H10.0849H10.0848H10.0847H10.0846H10.0845H10.0844H10.0843H10.0842H10.0841H10.084H10.0839H10.0837H10.0836H10.0835H10.0834H10.0833H10.0832H10.0831H10.083H10.0829H10.0828H10.0826H10.0825H10.0824H10.0823H10.0822H10.0821H10.082H10.0819H10.0817H10.0816H10.0815H10.0814H10.0813H10.0812H10.0811H10.081H10.0808H10.0807H10.0806H10.0805H10.0804H10.0803H10.0802H10.08H10.0799H10.0798H10.0797H10.0796H10.0795H10.0794H10.0792H10.0791H10.079H10.0789H10.0788H10.0787H10.0786H10.0784H10.0783H10.0782H10.0781H10.078H10.0779H10.0777H10.0776H10.0775H10.0774H10.0773H10.0772H10.0771H10.0769H10.0768H10.0767H10.0766H10.0765H10.0763H10.0762H10.0761H10.076H10.0759H10.0758H10.0756H10.0755H10.0754H10.0753H10.0752H10.0751H10.0749H10.0748H10.0747H10.0746H10.0745H10.0743H10.0742H10.0741H10.074H10.0739H10.0738H10.0736H10.0735H10.0734H10.0733H10.0732H10.073H10.0729H10.0728H10.0727H10.0726H10.0724H10.0723H10.0722H10.0721H10.072H10.0718H10.0717H10.0716H10.0715H10.0714H10.0712H10.0711H10.071H10.0709H10.0708H10.0706H10.0705H10.0704H10.0703H10.0702H10.07H10.0699H10.0698H10.0697H10.0696H10.0694H10.0693H10.0692H10.0691H10.069H10.0688H10.0687H10.0686H10.0685H10.0683H10.0682H10.0681H10.068H10.0679H10.0677H10.0676H10.0675H10.0674H10.0673H10.0671H10.067H10.0669H10.0668H10.0666H10.0665H10.0664H10.0663H10.0662H10.066H10.0659H10.0658H10.0657H10.0655H10.0654H10.0653H10.0652H10.0651H10.0649H10.0648H10.0647H10.0646H10.0645H10.0643H10.0642H10.0641H10.064H10.0638H10.0637H10.0636H10.0635H10.0634H10.0632H10.0631H10.063H10.0629H10.0627H10.0626H10.0625H10.0624H10.0623H10.0621H10.062H10.0619H10.0618H10.0616H10.0615H10.0614H10.0613H10.0612H10.061H10.0609H10.0608H10.0607H10.0605H10.0604H10.0603H10.0602H10.0601H10.0599H10.0598H10.0597H10.0596H10.0594H10.0593H10.0592H10.0591H10.059H10.0588H10.0587H10.0586H10.0585H10.0584H10.0582H10.0581H10.058H10.0579H10.0577H10.0576H10.0575H10.0574H10.0573H10.0571H10.057H10.0569H10.0568H10.0567H10.0565H10.0564H10.0563H10.0562H10.056H10.0559H10.0558H10.0557H10.0556H10.0554H10.0553H10.0552H10.0551H10.055H10.0548H10.0547H10.0546H10.0545H10.0544H10.0542H10.0541H10.054H10.0539H10.0538H10.0536H10.0535H10.0534H10.0533H10.0532H10.053H10.0529H10.0528H10.0527H10.0526H10.0524H10.0523H10.0522H10.0521H10.052H10.0518H10.0517H10.0516H10.0515H10.0514H10.0512H10.0511H10.051H10.0509H10.0508H10.0507H10.0505H10.0504H10.0503H10.0502H10.0501H10.0499H10.0498H10.0497H10.0496H10.0495H10.0494H10.0492H10.0491H10.049H10.0489H10.0488H10.0487H10.0485H10.0484H10.0483H10.0482H10.0481H10.0479H10.0478H10.0477H10.0476H10.0475H10.0474H10.0473H10.0471H10.047H10.0469H10.0468H10.0467H10.0466H10.0464H10.0463H10.0462H10.0461H10.046H10.0459H10.0458H10.0456H10.0455H10.0454H10.0453H10.0452H10.0451H10.045H10.0448H10.0447H10.0446H10.0445H10.0444H10.0443H10.0442H10.044H10.0439H10.0438H10.0437H10.0436H10.0435H10.0434H10.0433H10.0431H10.043H10.0429H10.0428H10.0427H10.0426H10.0425H10.0424H10.0422H10.0421H10.042H10.0419H10.0418H10.0417H10.0416H10.0415H10.0414H10.0413H10.0411H10.041H10.0409H10.0408H10.0407H10.0406H10.0405H10.0404H10.0403H10.0402H10.04H10.0399H10.0398H10.0397H10.0396H10.0395H10.0394H10.0393H10.0392H10.0391H10.039H10.0389H10.0388H10.0387H10.0385H10.0384H10.0383H10.0382H10.0381H10.038H10.0379H10.0378H10.0377H10.0376H10.0375H10.0374H10.0373H10.0372H10.0371H10.037H10.0369H10.0368H10.0367H10.0366H10.0364H10.0363H10.0362H10.0361H10.036H10.0359H10.0358H10.0357H10.0356H10.0355H10.0354H10.0353H10.0352H10.0351H10.035H10.0349H10.0348H10.0347H10.0346H10.0345H10.0344H10.0343H10.0342H10.0341H10.034H10.0339H10.0338H10.0337H10.0336H10.0335H10.0334H10.0333H10.0332H10.0331H10.033H10.0329H10.0328H10.0327H10.0326H10.0325H10.0324H10.0323H10.0322H10.0321H10.032H10.0319H10.0318H10.0317H10.0316H10.0315H10.0314H10.0313H10.0312H10.0311H10.031H10.0309H10.0308H10.0307H10.0306H10.0305H10.0303H10.0302H10.0301H10.03H10.0299H10.0298H10.0297H10.0296H10.0295H10.0294H10.0292H10.0291H10.029H10.0289H10.0288H10.0287H10.0286H10.0285H10.0283H10.0282H10.0281H10.028H10.0279H10.0278H10.0276H10.0275H10.0274H10.0273H10.0272H10.0271H10.0269H10.0268H10.0267H10.0266H10.0265H10.0264H10.0262H10.0261H10.026H10.0259H10.0257H10.0256H10.0255H10.0254H10.0253H10.0251H10.025H10.0249H10.0248H10.0246H10.0245H10.0244H10.0243H10.0241H10.024H10.0239H10.0238H10.0236H10.0235H10.0234H10.0233H10.0231H10.023H10.0229H10.0228H10.0226H10.0225H10.0224H10.0222H10.0221H10.022H10.0218H10.0217H10.0216H10.0215H10.0213H10.0212H10.0211H10.0209H10.0208H10.0207H10.0205H10.0204H10.0203H10.0201H10.02H10.0199H10.0197H10.0196H10.0195H10.0193H10.0192H10.0191H10.0189H10.0188H10.0186H10.0185H10.0184H10.0182H10.0181H10.018H10.0178H10.0177H10.0175H10.0174H10.0173H10.0171H10.017H10.0169H10.0167H10.0166H10.0164H10.0163H10.0162H10.016H10.0159H10.0157H10.0156H10.0154H10.0153H10.0152H10.015H10.0149H10.0147H10.0146H10.0145H10.0143H10.0142H10.014H10.0139H10.0137H10.0136H10.0134H10.0133H10.0132H10.013H10.0129H10.0127H10.0126H10.0124H10.0123H10.0121H10.012H10.0118H10.0117H10.0115H10.0114H10.0113H10.0111H10.011H10.0108H10.0107H10.0105H10.0104H10.0102H10.0101H10.0099H10.0098H10.0096H10.0095H10.0093H10.0092H10.009H10.0089H10.0087H10.0086H10.0084H10.0083H10.0081H10.008H10.0078H10.0077H10.0075H10.0074H10.0072H10.0071H10.0069H10.0068H10.0066H10.0064H10.0063H10.0061H10.006H10.0058H10.0057H10.0055H10.0054H10.0052H10.0051H10.0049H10.0048H10.0046H10.0044H10.0043H10.0041H10.004H10.0038H10.0037H10.0035H10.0034H10.0032H10.003H10.0029H10.0027H10.0026H10.0024H10.0023H10.0021H10.002H10.0018H10.0016H10.0015H10.0013H10.0012H10.001H10.0009H10.0007H10.0005H10.0004H10.0002H10.0001H9.99991H9.99975H9.99959H9.99943H9.99928H9.99912H9.99896H9.9988H9.99864H9.99848H9.99832H9.99816H9.998H9.99785H9.99769H9.99753H9.99737H9.99721H9.99705H9.99689H9.99673H9.99657H9.99641H9.99625H9.99609H9.99593H9.99577H9.99561H9.99545H9.99529H9.99512H9.99496H9.9948H9.99464H9.99448H9.99432H9.99416H9.994H9.99384H9.99368H9.99351H9.99335H9.99319H9.99303H9.99287H9.99271H9.99255H9.99238H9.99222H9.99206H9.9919H9.99174H9.99158H9.99141H9.99125H9.99109H9.99093H9.99077H9.9906H9.99044H9.99028H9.99012H9.98995H9.98979H9.98963H9.98947H9.98931H9.98914H9.98898H9.98882H9.98866H9.98849H9.98833H9.98817H9.98801H9.98784H9.98768H9.98752H9.98735H9.98719H9.98703H9.98687H9.9867H9.98654H9.98638H9.98622H9.98605H9.98589H9.98573H9.98556H9.9854H9.98524H9.98508H9.98491H9.98475H9.98459H9.98443H9.98426H9.9841H9.98394H9.98377H9.98361H9.98345H9.98329H9.98312H9.98296H9.9828H9.98264H9.98247H9.98231H9.98215H9.98199H9.98182H9.98166H9.9815H9.98134H9.98117H9.98101H9.98085H9.98069H9.98052H9.98036H9.9802H9.98004H9.97987H9.97971H9.97955H9.97939H9.97923H9.97906H9.9789H9.97874H9.97858H9.97842H9.97826H9.97809H9.97793H9.97777H9.97761H9.97745H9.97729H9.97712H9.97696H9.9768H9.97664H9.97648H9.97632H9.97616H9.976H9.97583H9.97567H9.97551H9.97535H9.97519H9.97503H9.97487H9.97471H9.97455H9.97439H9.97423H9.97407H9.97391H9.97375H9.97359H9.97343H9.97327H9.97311H9.97295H9.97279H9.97263H9.97247H9.97231H9.97215H9.97199H9.97184H9.97168H9.97152H9.97136H9.9712H9.97104H9.97088H9.97073H9.97057H9.97041H9.97025H9.97009H9.96993H9.96978H9.96962H9.96946H9.9693H9.96915H9.96899H9.96883H9.96868H9.96852H9.96836H9.96821H9.96805H9.96789H9.96774H9.96758H9.96743H9.96727H9.96711H9.96696H9.9668H9.96665H9.96649H9.96634H9.96618H9.96603H9.96587H9.96572H9.96571C8.47682 11.4709 7.375 10.3144 7.375 8.90002Z" fill="#222222" stroke="#222222"/>
</svg>
